<?xml version="1.0" encoding="UTF-8" standalone="no"?> <svg width="64" height="64" viewBox="0 0 64 64" fill="none" xmlns="http://www.w3.org/2000/svg">
<path d="M42.9999 30.1201C42.9999 28.8717 42.7539 27.6356 42.2758 26.4823C41.7978 25.3291 41.0971 24.2814 40.2139 23.3991C39.3307 22.5168 38.2823 21.8172 37.1285 21.3404C35.9748 20.8636 34.7383 20.6188 33.4899 20.6201H18.3199C15.8004 20.6201 13.384 21.621 11.6024 23.4026C9.82084 25.1842 8.81995 27.6006 8.81995 30.1201V30.4101H42.9999V30.1201Z" fill="#78B9EB"/>
<path d="M8.81995 39.46V54H43.1099V39.46H8.81995ZM16.5299 49.87C15.9124 49.8719 15.3082 49.6906 14.7939 49.349C14.2795 49.0074 13.878 48.5208 13.6403 47.9509C13.4026 47.3809 13.3394 46.7533 13.4587 46.1474C13.5779 45.5416 13.8743 44.9847 14.3102 44.5473C14.7462 44.11 15.3021 43.8119 15.9076 43.6907C16.5131 43.5695 17.1409 43.6307 17.7116 43.8665C18.2823 44.1024 18.7702 44.5023 19.1134 45.0155C19.4567 45.5288 19.6399 46.1325 19.6399 46.75C19.64 47.5757 19.3126 48.3678 18.7297 48.9526C18.1467 49.5374 17.3557 49.8673 16.5299 49.87ZM35.6999 49.87C35.0829 49.87 34.4796 49.687 33.9666 49.3441C33.4535 49.0013 33.0536 48.514 32.8174 47.9439C32.5813 47.3738 32.5195 46.7465 32.6399 46.1413C32.7603 45.5361 33.0574 44.9801 33.4938 44.5438C33.9301 44.1074 34.486 43.8103 35.0913 43.6899C35.6965 43.5695 36.3238 43.6313 36.8939 43.8675C37.464 44.1036 37.9513 44.5035 38.2941 45.0166C38.637 45.5297 38.8199 46.1329 38.8199 46.75C38.8199 47.5774 38.4912 48.371 37.9061 48.9561C37.321 49.5412 36.5274 49.87 35.6999 49.87Z" fill="#78B9EB"/>
<path d="M48.23 29.8799H44.23C44.0349 26.9802 42.7463 24.2626 40.6246 22.2764C38.5029 20.2902 35.7063 19.1835 32.8 19.1799H19.42C16.5154 19.186 13.7213 20.2939 11.6018 22.2798C9.48218 24.2658 8.19498 26.9819 8 29.8799H4C3.73478 29.8799 3.48043 29.9853 3.29289 30.1728C3.10536 30.3604 3 30.6147 3 30.8799V34.8799C3 35.1451 3.10536 35.3995 3.29289 35.587C3.48043 35.7746 3.73478 35.8799 4 35.8799C4.26522 35.8799 4.51957 35.7746 4.70711 35.587C4.89464 35.3995 5 35.1451 5 34.8799V31.8799H8V54.1299C8 54.3951 8.10536 54.6495 8.29289 54.837C8.48043 55.0246 8.73478 55.1299 9 55.1299H11.51V57.4599C11.51 58.4068 11.8861 59.3148 12.5556 59.9843C13.2251 60.6538 14.1332 61.0299 15.08 61.0299C16.0268 61.0299 16.9349 60.6538 17.6044 59.9843C18.2739 59.3148 18.65 58.4068 18.65 57.4599V55.1299H32.88V57.4599C32.8543 57.9453 32.9278 58.4308 33.0958 58.8869C33.2639 59.343 33.5231 59.7601 33.8575 60.1127C34.192 60.4654 34.5948 60.7462 35.0414 60.9382C35.488 61.1301 35.9689 61.2291 36.455 61.2291C36.9411 61.2291 37.422 61.1301 37.8686 60.9382C38.3152 60.7462 38.718 60.4654 39.0525 60.1127C39.3869 59.7601 39.6461 59.343 39.8142 58.8869C39.9822 58.4308 40.0557 57.9453 40.03 57.4599V55.1299H43.28C43.5452 55.1299 43.7996 55.0246 43.9871 54.837C44.1746 54.6495 44.28 54.3951 44.28 54.1299V31.8799H47.23V34.8799C47.23 35.1451 47.3354 35.3995 47.5229 35.587C47.7104 35.7746 47.9648 35.8799 48.23 35.8799C48.4952 35.8799 48.7496 35.7746 48.9371 35.587C49.1246 35.3995 49.23 35.1451 49.23 34.8799V30.8799C49.23 30.7486 49.2041 30.6186 49.1539 30.4972C49.1036 30.3759 49.03 30.2657 48.9371 30.1728C48.8442 30.08 48.734 30.0063 48.6127 29.9561C48.4914 29.9058 48.3613 29.8799 48.23 29.8799V29.8799ZM10 38.3699V31.6399H24.74V38.3699H10ZM26.79 31.6399H42.28V38.3699H26.74L26.79 31.6399ZM19.42 21.1799H32.81C35.1457 21.1814 37.3985 22.046 39.1354 23.6076C40.8723 25.1692 41.9709 27.3176 42.22 29.6399H10C10.2493 27.3158 11.3493 25.1661 13.0883 23.6042C14.8274 22.0424 17.0826 21.1789 19.42 21.1799V21.1799ZM16.6 57.4599C16.6 57.8763 16.4346 58.2757 16.1402 58.5701C15.8457 58.8645 15.4464 59.0299 15.03 59.0299C14.6136 59.0299 14.2143 58.8645 13.9198 58.5701C13.6254 58.2757 13.46 57.8763 13.46 57.4599V55.1299H16.6V57.4599ZM38.03 57.4599C38.0473 57.6773 38.0195 57.8959 37.9482 58.102C37.8769 58.3081 37.7637 58.4972 37.6158 58.6574C37.4678 58.8176 37.2883 58.9455 37.0886 59.0329C36.8888 59.1204 36.6731 59.1655 36.455 59.1655C36.2369 59.1655 36.0212 59.1204 35.8214 59.0329C35.6217 58.9455 35.4422 58.8176 35.2942 58.6574C35.1463 58.4972 35.0331 58.3081 34.9618 58.102C34.8905 57.8959 34.8627 57.6773 34.88 57.4599V55.1299H38L38.03 57.4599ZM10 53.1299V40.3699H42.28V53.1299H10Z" fill="#006DF0"/>
<path d="M35.7 43.0801C34.9762 43.0801 34.2685 43.2947 33.6667 43.6969C33.0648 44.0991 32.5957 44.6707 32.3186 45.3395C32.0416 46.0082 31.9691 46.7441 32.1104 47.4541C32.2516 48.1641 32.6002 48.8162 33.112 49.3281C33.6239 49.8399 34.276 50.1885 34.986 50.3298C35.696 50.471 36.4319 50.3985 37.1007 50.1215C37.7694 49.8445 38.3411 49.3753 38.7432 48.7735C39.1454 48.1716 39.36 47.464 39.36 46.7401C39.36 45.7694 38.9744 44.8384 38.2881 44.1521C37.6017 43.4657 36.6707 43.0801 35.7 43.0801ZM35.7 48.3901C35.3713 48.3901 35.05 48.2925 34.7768 48.1096C34.5036 47.9268 34.2908 47.6669 34.1655 47.363C34.0401 47.0591 34.0078 46.7248 34.0727 46.4025C34.1376 46.0803 34.2967 45.7845 34.5298 45.5527C34.763 45.321 35.0597 45.1637 35.3824 45.1008C35.705 45.0378 36.0391 45.0721 36.3423 45.1993C36.6454 45.3265 36.904 45.5408 37.0852 45.8151C37.2664 46.0894 37.362 46.4113 37.36 46.7401C37.36 46.9576 37.317 47.173 37.2335 47.3738C37.1499 47.5747 37.0275 47.757 36.8732 47.9104C36.719 48.0637 36.5359 48.185 36.3345 48.2674C36.1332 48.3497 35.9176 48.3914 35.7 48.3901V48.3901Z" fill="#006DF0"/>
<path d="M16.53 43.0801C15.8057 43.0781 15.0971 43.2911 14.4939 43.692C13.8907 44.093 13.42 44.6639 13.1415 45.3325C12.8629 46.0011 12.789 46.7373 12.9291 47.448C13.0692 48.1586 13.417 48.8117 13.9284 49.3245C14.4399 49.8374 15.092 50.187 15.8023 50.329C16.5125 50.4711 17.2489 50.3992 17.9183 50.1224C18.5877 49.8457 19.1599 49.3766 19.5625 48.7745C19.9651 48.1724 20.18 47.4644 20.18 46.7401C20.18 45.7711 19.7958 44.8417 19.1115 44.1556C18.4273 43.4695 17.4989 43.0827 16.53 43.0801ZM16.53 48.3901C16.2008 48.3921 15.8785 48.2961 15.604 48.1145C15.3295 47.9329 15.1152 47.6737 14.9883 47.37C14.8614 47.0662 14.8277 46.7317 14.8914 46.4087C14.9552 46.0858 15.1135 45.7891 15.3462 45.5563C15.579 45.3236 15.8757 45.1653 16.1986 45.1015C16.5216 45.0378 16.8561 45.0715 17.1599 45.1984C17.4636 45.3253 17.7228 45.5396 17.9044 45.8141C18.086 46.0886 18.182 46.4109 18.18 46.7401C18.18 47.1777 18.0061 47.5974 17.6967 47.9068C17.3873 48.2163 16.9676 48.3901 16.53 48.3901Z" fill="#006DF0"/>
<path d="M45.15 3C44.8848 3 44.6305 3.10536 44.4429 3.29289C44.2554 3.48043 44.15 3.73478 44.15 4C44.15 4.26522 44.2554 4.51957 44.4429 4.70711C44.6305 4.89464 44.8848 5 45.15 5C48.8297 5.0185 52.3523 6.49324 54.9477 9.10174C57.5431 11.7102 59.0001 15.2403 59 18.92C59 19.1852 59.1054 19.4396 59.2929 19.6271C59.4805 19.8146 59.7348 19.92 60 19.92C60.2652 19.92 60.5196 19.8146 60.7071 19.6271C60.8947 19.4396 61 19.1852 61 18.92C61.0027 14.709 59.3359 10.6688 56.3649 7.68463C53.3938 4.70049 49.3609 3.01588 45.15 3V3Z" fill="#006DF0"/>
<path d="M45.15 7.16992C44.8848 7.16992 44.6305 7.27528 44.4429 7.46281C44.2554 7.65035 44.15 7.90471 44.15 8.16992C44.15 8.43514 44.2554 8.68949 44.4429 8.87703C44.6305 9.06456 44.8848 9.16992 45.15 9.16992C47.7255 9.18577 50.19 10.22 52.0056 12.0468C53.8211 13.8735 54.8401 16.3444 54.84 18.9199C54.84 19.1851 54.9454 19.4395 55.1329 19.627C55.3205 19.8146 55.5748 19.9199 55.84 19.9199C56.1052 19.9199 56.3596 19.8146 56.5471 19.627C56.7347 19.4395 56.84 19.1851 56.84 18.9199C56.8427 15.8132 55.6138 12.8321 53.4227 10.6297C51.2315 8.42725 48.2567 7.18315 45.15 7.16992V7.16992Z" fill="#006DF0"/>
<path d="M45.15 11.3401C44.8848 11.3401 44.6305 11.4454 44.4429 11.633C44.2554 11.8205 44.15 12.0749 44.15 12.3401C44.15 12.6053 44.2554 12.8597 44.4429 13.0472C44.6305 13.2347 44.8848 13.3401 45.15 13.3401C46.6186 13.3559 48.0215 13.9511 49.0534 14.9961C50.0853 16.0411 50.6627 17.4514 50.66 18.9201C50.66 19.1853 50.7654 19.4397 50.9529 19.6272C51.1405 19.8147 51.3948 19.9201 51.66 19.9201C51.9252 19.9201 52.1796 19.8147 52.3671 19.6272C52.5547 19.4397 52.66 19.1853 52.66 18.9201C52.6654 16.9202 51.8781 14.9997 50.4705 13.5791C49.063 12.1584 47.1499 11.3533 45.15 11.3401Z" fill="#006DF0"/>
<path d="M45.12 22.26C45.7865 22.26 46.4381 22.0624 46.9923 21.6921C47.5465 21.3218 47.9784 20.7955 48.2335 20.1797C48.4885 19.5639 48.5553 18.8863 48.4252 18.2326C48.2952 17.5789 47.9743 16.9784 47.5029 16.5071C47.0316 16.0358 46.4312 15.7148 45.7775 15.5848C45.1237 15.4547 44.4461 15.5215 43.8304 15.7765C43.2146 16.0316 42.6882 16.4636 42.3179 17.0177C41.9476 17.5719 41.75 18.2235 41.75 18.89C41.7526 19.783 42.1085 20.6386 42.74 21.2701C43.3714 21.9015 44.227 22.2574 45.12 22.26V22.26ZM45.12 17.52C45.391 17.52 45.6558 17.6004 45.8811 17.7509C46.1064 17.9014 46.282 18.1154 46.3857 18.3657C46.4894 18.6161 46.5165 18.8915 46.4637 19.1573C46.4108 19.423 46.2803 19.6672 46.0887 19.8588C45.8971 20.0504 45.653 20.1808 45.3873 20.2337C45.1215 20.2866 44.8461 20.2594 44.5957 20.1557C44.3454 20.052 44.1314 19.8764 43.9809 19.6512C43.8304 19.4259 43.75 19.161 43.75 18.89C43.7526 18.5275 43.8978 18.1805 44.1542 17.9242C44.4105 17.6678 44.7575 17.5226 45.12 17.52V17.52Z" fill="#006DF0"/>
</svg>
